<svg width="12" height="16" viewBox="0 0 12 16" fill="none" xmlns="http://www.w3.org/2000/svg">
<path d="M5.89023 0C2.64251 0 0 2.64251 0 5.89056C0 6.73777 0.173406 7.54667 0.515141 8.29499C1.98786 11.5176 4.81148 14.9201 5.64199 15.886C5.70421 15.9582 5.79493 15.9998 5.89039 15.9998C5.98585 15.9998 6.07657 15.9582 6.13879 15.886C6.96898 14.9203 9.79259 11.518 11.2658 8.29499C11.6077 7.54667 11.7809 6.73777 11.7809 5.89056C11.7806 2.64251 9.13811 0 5.89023 0ZM5.89023 8.95013C4.20317 8.95013 2.83049 7.57746 2.83049 5.89039C2.83049 4.20317 4.20317 2.83049 5.89023 2.83049C7.57729 2.83049 8.94996 4.20317 8.94996 5.89039C8.95013 7.57746 7.57745 8.95013 5.89023 8.95013Z" fill="#029F59"/>
</svg>
